<svg xmlns="http://www.w3.org/2000/svg" width="103" height="26" viewBox="0 0 103 26" version="1.1">
	<path d="M 14 4.029 C 14 6.573, 15.514 7.290, 17.029 5.465 C 18.381 3.836, 17.823 2.738, 15.471 2.393 C 14.628 2.269, 14 2.968, 14 4.029 M 95.480 5.032 C 95.092 5.660, 95.245 6.645, 95.820 7.220 C 97.164 8.564, 100.297 7.392, 99.750 5.749 C 99.194 4.078, 96.364 3.602, 95.480 5.032 M 1 5.929 C 1 6.439, 1.580 7.452, 2.288 8.179 C 2.996 8.905, 4.354 11.160, 5.306 13.188 C 6.257 15.217, 8.040 17.181, 9.268 17.553 C 10.495 17.925, 12.427 19.077, 13.561 20.111 C 15.585 21.960, 15.681 21.949, 19.005 19.496 C 20.866 18.123, 22.943 17, 23.621 17 C 24.991 17, 30.598 6.264, 29.697 5.364 C 29.384 5.051, 26.167 5.780, 22.549 6.984 L 15.969 9.173 9.791 7.087 C 2.991 4.790, 1 4.528, 1 5.929 M 88.557 8.223 C 85.534 12.538, 87.136 21, 90.976 21 C 93.183 21, 94.923 18.808, 93.177 18.226 C 91.392 17.631, 91.684 12, 93.500 12 C 94.611 12, 95 13.167, 95 16.500 C 95 20.333, 95.296 21, 97 21 C 98.782 21, 99 20.333, 99 14.883 C 99 9.165, 98.863 8.802, 96.904 9.315 C 94.198 10.022, 92 9.161, 92 7.393 C 92 5.307, 90.315 5.713, 88.557 8.223 M 40 13.808 C 40 19.676, 41.958 22.132, 45.081 20.181 C 46.246 19.454, 47 19.380, 47 19.992 C 47 20.546, 47.875 21, 48.945 21 C 50.547 21, 50.957 20.160, 51.265 16.250 L 51.640 11.500 51.820 16.250 C 51.985 20.602, 52.210 21, 54.500 21 C 56.750 21, 57 20.600, 57 17 C 57 14.800, 57.450 13, 58 13 C 58.550 13, 59 14.800, 59 17 C 59 20.366, 59.325 21, 61.050 21 C 62.914 21, 63.073 20.478, 62.800 15.250 L 62.500 9.500 58.507 9.345 C 56.310 9.260, 53.723 9.613, 52.757 10.130 C 51.607 10.746, 51 10.713, 51 10.035 C 51 9.466, 49.875 9, 48.500 9 C 46.205 9, 45.988 9.390, 45.850 13.750 L 45.700 18.500 45.100 14 C 44.609 10.316, 44.092 9.442, 42.250 9.180 C 40.177 8.886, 40 9.250, 40 13.808 M 65.095 9.941 C 64.331 10.414, 63.994 12.517, 64.189 15.597 C 64.456 19.807, 64.818 20.545, 66.750 20.820 C 68.767 21.106, 69 20.718, 69 17.070 C 69 14.831, 69.450 13, 70 13 C 70.550 13, 71 14.800, 71 17 C 71 20.366, 71.325 21, 73.050 21 C 74.914 21, 75.073 20.478, 74.800 15.250 L 74.500 9.500 70.406 9.344 C 68.155 9.259, 65.765 9.527, 65.095 9.941 M 78.250 9.662 C 76.030 10.558, 76.922 11.998, 79.750 12.082 L 82.500 12.163 79.186 13.610 C 76.440 14.810, 75.926 15.524, 76.186 17.779 C 76.476 20.291, 76.865 20.511, 81.250 20.641 L 86 20.783 86 16.091 C 86 13.511, 85.460 10.860, 84.800 10.200 C 83.587 8.987, 80.543 8.737, 78.250 9.662 M 10.420 12.252 C 9.968 13.677, 10.666 15.128, 12.864 17.326 L 15.942 20.403 18.471 18.027 C 20.865 15.778, 22.018 13.253, 20.114 14.430 C 19.626 14.731, 18.984 14.047, 18.687 12.910 C 18.265 11.297, 18.508 10.981, 19.792 11.474 C 20.698 11.821, 21.078 11.744, 20.636 11.303 C 20.195 10.861, 17.858 10.445, 15.444 10.378 C 11.874 10.278, 10.935 10.628, 10.420 12.252 M 81.079 16.583 C 81.127 17.748, 81.364 17.985, 81.683 17.188 C 81.972 16.466, 81.936 15.603, 81.604 15.271 C 81.272 14.939, 81.036 15.529, 81.079 16.583" stroke="none" fill="black" fill-rule="evenodd"/>
</svg>